<mxfile host="app.diagrams.net" modified="2023-12-29T08:06:49.965Z" agent="Mozilla/5.0 (Windows NT 10.0; Win64; x64) AppleWebKit/537.36 (KHTML, like Gecko) Chrome/120.0.0.0 Safari/537.36" version="22.1.15" etag="iU8bruGkWFHvaox7GqR8" type="github">
  <diagram name="페이지-1" id="hbM1mDOli2uQlh-kuFyC">
    <mxGraphModel>
      <root>
        <mxCell id="0" />
        <mxCell id="1" parent="0" />
      </root>
    </mxGraphModel>
  </diagram>
</mxfile>
